# AST/ASF file generated using VICON BodyLanguage
# -----------------------------------------------
:version 1.10
:name VICON
:units
  mass 1.0
  length 0.45
  angle deg
:documentation
   .ast/.asf automatically generated from VICON data using
   VICON BodyBuilder and BodyLanguage model FoxedUp or BRILLIANT.MOD
:root
   order TX TY TZ RX RY RZ
   axis XYZ
   position 0 0 0  
   orientation 0 0 0 
:bonedata
  begin
     id 1 
     name lhipjoint
     direction 0.714689 -0.624256 0.315473 
     length 2.45343 
     axis 0 0 0  XYZ
  end
  begin
     id 2 
     name lfemur
     direction 0.34202 -0.939693 0  
     length 6.59069  
     axis 0 0 20  XYZ
    dof rx ry rz
    limits (-160.0 20.0)
           (-70.0 70.0)
           (-60.0 70.0)
  end
  begin
     id 3 
     name ltibia
     direction 0.34202 -0.939693 0   
     length 6.73476   
     axis 0 0 20   XYZ
    dof rx
    limits (-10.0 170.0)
  end
  begin
     id 4 
     name lfoot
     direction 0.0718085 -0.197292 0.977711   
     length 1.52607   
     axis -90 7.62852e-016 20   XYZ
    dof rx rz
    limits (-45.0 90.0)
           (-70.0 20.0)
  end
  begin
     id 5 
     name ltoes
     direction 1.53553e-011 -4.22024e-011 1   
     length 0.777832   
     axis -90 7.62852e-016 20   XYZ
    dof rx
    limits (-90.0 20.0)
  end
  begin
     id 6 
     name rhipjoint
     direction -0.727419 -0.612432 0.309497   
     length 2.50079  
     axis 0 0 0  XYZ 
  end
  begin
     id 7 
     name rfemur
     direction -0.34202 -0.939693 0   
     length 6.51665   
     axis 0 0 -20   XYZ
    dof rx ry rz
    limits (-160.0 20.0)
           (-70.0 70.0)
           (-70.0 60.0)
  end
  begin
     id 8 
     name rtibia
     direction -0.34202 -0.939693 0   
     length 6.48919   
     axis 0 0 -20   XYZ
    dof rx
    limits (-10.0 170.0)
 end
 begin
     id 9 
     name rfoot
     direction -0.112205 -0.308282 0.944655   
     length 1.68717  
     axis -90 -7.62852e-016 -20   XYZ
    dof rx rz
    limits (-45.0 90.0)
           (-20.0 70.0)
  end
  begin
     id 10 
     name rtoes
     direction -1.53583e-011 -4.21993e-011 1   
     length 0.846859   
     axis -90 -7.62852e-016 -20   XYZ
    dof rx
    limits (-90.0 20.0)
  end
  begin
     id 11 
     name lowerback
     direction -0.00119603 0.996364 -0.0851956   
     length 1.67242   
     axis 0 0 0   XYZ
    dof rx ry rz
    limits (-20.0 45.0)
           (-30.0 30.0)
           (-30.0 30.0)
  end
  begin
     id 12 
     name upperback
     direction -0.00531001 0.998318 0.0577248   
     length 1.64819   
     axis 0 0 0   XYZ
    dof rx ry rz
    limits (-20.0 45.0)
           (-30.0 30.0)
           (-30.0 30.0)
  end
  begin
     id 13 
     name thorax
     direction -0.00653676 0.995132 0.0983291   
     length 1.67429   
     axis 0 0 0   XYZ
    dof rx ry rz
    limits (-20.0 45.0)
           (-30.0 30.0)
           (-30.0 30.0)
  end
  begin
     id 14 
     name lowerneck
     direction 0.0141424 0.999886 0.00525412   
     length 1.59623   
     axis 0 0 0   XYZ
    dof rx ry rz
    limits (-20.0 45.0)
           (-30.0 30.0)
           (-30.0 30.0)
  end
  begin
     id 15 
     name upperneck
     direction -0.0640064 0.987178 -0.146232   
     length 1.59576   
     axis 0 0 0   XYZ
    dof rx ry rz
    limits (-20.0 45.0)
           (-30.0 30.0)
           (-30.0 30.0)
  end
  begin
     id 16
     name head
     direction -0.0222942 0.998496 -0.0500859  
     length 1.60959  
     axis 0 0 0   XYZ
    dof rx ry rz
    limits (-20.0 45.0)
           (-30.0 30.0)
           (-30.0 30.0)
  end
  begin
     id 17 
     name lclavicle
     direction 0.908549 0.392612 0.142806  
     length 2.80649  
     axis 0 0 0   XYZ
    dof ry rz
    limits (-20.0 10.0)
           (0.0 20.0)
  end
  begin
     id 18 
     name lhumerus
     direction 1 -4.48968e-011 1.08832e-028   
     length 4.2884   
     axis -180 -30 -90   XYZ
    dof rx ry rz
    limits (-60.0 90.0)
           (-90.0 90.0)
           (-90.0 90.0)
  end
  begin
     id 19
     name lradius
     direction 1 -4.48952e-011 -3.02642e-028   
     length 3.06552   
     axis -180 -30 -90   XYZ
    dof rx
    limits (-10.0 170.0)
  end
  begin
     id 20
     name lwrist
     direction 1 -4.49014e-011 1.58672e-027   
     length 1.53276   
     axis -1.65735e-015 90 90   XYZ
    dof ry
    limits (-180.0 0.0)
 end
  begin
     id 21 
     name lhand
     direction 1 -4.48928e-011 3.17344e-027   
     length 0.753045   
     axis -2.02492e-015 90 90   XYZ
    dof rx rz
    limits (-90.0 90.0)
           (-45.0 45.0)
  end
  begin
     id 22 
     name lfingers
     direction 1 -4.48958e-011 6.34687e-027   
     length 0.607124   
     axis -4.04985e-015 90 90   XYZ
    dof rx
    limits (0.0 90.0)
  end
  begin
     id 23
     name lthumb
     direction 0.707107 -6.34905e-011 0.707107   
     length 0.871712   
     axis -90 45 2.85299e-015   XYZ
    dof rx rz
    limits (-45.0 45.0)
           (-45.0 45.0)
  end
  begin
     id 24 
     name rclavicle
     direction -0.885098 0.45949 0.0739604   
     length 2.9478  
     axis 0 0 0   XYZ 
    dof ry rz
    limits (-10.0 20.0)
           (-20.0 0.0)
  end
  begin
     id 25 
     name rhumerus
     direction -1 -4.4898e-011 -2.61739e-027  
     length 4.52172   
     axis -180 30 90   XYZ
    dof rx ry rz
    limits (-90.0 60.0)
           (-90.0 90.0)
           (-90.0 90.0)
  end
  begin
     id 26 
     name rradius
     direction -1 -4.48945e-011 9.02552e-028   
     length 2.8914   
     axis -180 30 90   XYZ
    dof rx
    limits (-10.0 170.0)
  end
  begin
     id 27 
     name rwrist
     direction -1 -4.49018e-011 1.58672e-027   
     length 1.4457   
     axis -1.65735e-015 -90 -90   XYZ
    dof ry
    limits (-180.0 0.0)
  end
  begin
     id 28
     name rhand
     direction -1 -4.48825e-011 3.17344e-027   
     length 0.680541   
     axis -2.02492e-015 -90 -90   XYZ
    dof rx rz
    limits (-90.0 90.0)
           (-45.0 45.0)
  end
  begin
     id 29
     name rfingers
     direction -1 -4.49067e-011 6.34687e-027   
     length 0.54867   
     axis -4.04985e-015 -90 -90   XYZ
    dof rx
    limits (0.0 90.0)
  end
  begin
     id 30
     name rthumb
     direction -0.707107 -6.34833e-011 0.707107   
     length 0.787783   
     axis -90 -45 -2.85299e-015   XYZ
    dof rx rz
    limits (-45.0 45.0)
           (-45.0 45.0)
  end
:hierarchy
  begin
    root lhipjoint rhipjoint lowerback
    lhipjoint lfemur
    lfemur ltibia
    ltibia lfoot
    lfoot ltoes
    rhipjoint rfemur
    rfemur rtibia
    rtibia rfoot
    rfoot rtoes
    lowerback upperback
    upperback thorax
    thorax lowerneck lclavicle rclavicle
    lowerneck upperneck
    upperneck head
    lclavicle lhumerus
    lhumerus lradius
    lradius lwrist
    lwrist lhand lthumb
    lhand lfingers
    rclavicle rhumerus
    rhumerus rradius
    rradius rwrist
    rwrist rhand rthumb
    rhand rfingers
  end

#!OML:ASF E:\emotionWalksFemale\Project 1\Capture day 1\Session 1\Female1.ASF
:FULLY-SPECIFIED
:DEGREES
760
root 7.24531 15.5549 2.96306 177.455 0.598484 176.632
lowerback 7.03642 0.391344 -1.34015
upperback -5.06627 0.441045 -0.93862
thorax -9.33009 0.325737 -0.320758
lowerneck -1.61029 -2.63967 -5.76626
upperneck 0.832397 -3.48544 5.24048
head 0.749835 -1.73141 2.62005
rclavicle 4.82053e-015 -4.57205e-015
rhumerus -43.4779 2.37225 -85.7566
rradius 32.584
rwrist 19.8761
rhand -1.52963 -52.3702
rfingers 7.12502
rthumb 24.1245 -80.8734
lclavicle 4.82053e-015 -4.57205e-015
lhumerus -38.5791 3.10705 80.71
lradius 36.3171
lwrist -14.458
lhand -6.29646 -34.6501
lfingers 7.12502
lthumb 19.5473 -5.61272
rfemur -18.6665 -7.06773 19.5237
rtibia 64.8193
rfoot -11.1938 -20.2878
rtoes 9.0704
lfemur 0.592063 -15.6639 -32.8784
ltibia 18.124
lfoot -16.9636 18.108
ltoes -23.1835
761
root 7.24984 15.5375 2.85299 177.506 0.416918 176.664
lowerback 7.1084 0.327888 -1.4583
upperback -5.09885 0.347218 -0.859194
thorax -9.40938 0.291288 -0.157027
lowerneck -1.4501 -2.65796 -5.68877
upperneck 0.720225 -3.51334 5.11685
head 0.683325 -1.74712 2.56618
rclavicle -7.20594e-016 1.98785e-015
rhumerus -44.0086 2.27388 -85.5682
rradius 32.9059
rwrist 19.5266
rhand -0.89416 -52.9171
rfingers 7.12502
rthumb 24.7337 -81.3381
lclavicle -7.20594e-016 1.98785e-015
lhumerus -38.1781 2.90764 81.0134
lradius 36.5043
lwrist -14.1391
lhand -5.95612 -34.5914
lfingers 7.12502
lthumb 19.8745 -5.58763
rfemur -19.679 -6.93154 19.8498
rtibia 63.9074
rfoot -12.7154 -20.8406
rtoes 10.1807
lfemur 0.821365 -15.576 -32.9775
ltibia 18.5366
lfoot -17.1914 18.2041
ltoes -24.5541
762
root 7.2532 15.5185 2.73593 177.522 0.280564 176.666
lowerback 7.06509 0.281072 -1.55047
upperback -5.04604 0.275851 -0.810112
thorax -9.32594 0.262426 -0.041084
lowerneck -1.35459 -2.66374 -5.65534
upperneck 0.547822 -3.5219 5.10931
head 0.611722 -1.75227 2.55932
rclavicle 3.18055e-015 -2.5842e-015
rhumerus -44.334 1.964 -85.3064
rradius 32.9874
rwrist 19.5733
rhand -0.841927 -52.8852
rfingers 7.12502
rthumb 24.7837 -81.2994
lclavicle 3.18055e-015 -2.5842e-015
lhumerus -37.6328 2.71428 81.3049
lradius 36.5574
lwrist -13.8762
lhand -6.05494 -34.6241
lfingers 7.12502
lthumb 19.7795 -5.61054
rfemur -20.548 -6.77702 20.0887
rtibia 62.8568
rfoot -14.2 -21.229
rtoes 10.7409
lfemur 1.15144 -15.6298 -33.1543
ltibia 18.916
lfoot -17.5742 18.4823
ltoes -25.6796
763
root 7.26511 15.5045 2.64115 177.531 -0.183616 176.6
lowerback 7.40209 0.285807 -1.78254
upperback -5.01776 -0.0291763 -0.817173
thorax -9.4954 0.0142461 0.145764
lowerneck -1.44622 -2.65549 -5.53509
upperneck 0.456271 -3.50778 5.12092
head 0.595506 -1.74428 2.54042
rclavicle 4.44781e-015 -8.54774e-015
rhumerus -44.5205 1.80293 -85.2244
rradius 33.0227
rwrist 19.57
rhand -1.09828 -52.4789
rfingers 7.12502
rthumb 24.538 -80.9266
lclavicle 4.44781e-015 -8.54774e-015
lhumerus -37.0505 2.38544 81.5365
lradius 36.6702
lwrist -13.537
lhand -6.5444 -34.7938
lfingers 7.12502
lthumb 19.309 -5.73247
rfemur -21.3807 -6.75572 20.2742
rtibia 61.6234
rfoot -15.0299 -21.7956
rtoes 10.927
lfemur 1.41988 -15.6042 -33.2707
ltibia 19.2352
lfoot -18.0519 18.0953
ltoes -26.3278
764
root 7.2724 15.4906 2.53524 177.553 -0.276862 176.583
lowerback 7.51883 0.246201 -1.92502
upperback -4.9613 -0.0934404 -0.791269
thorax -9.50196 -0.00451495 0.263009
lowerneck -1.61644 -2.63593 -5.49151
upperneck 0.440787 -3.47546 5.15218
head 0.618087 -1.7263 2.54123
rclavicle -1.2424e-015 -7.95139e-016
rhumerus -44.5673 1.77732 -85.1964
rradius 32.9956
rwrist 19.2386
rhand -1.24475 -52.5146
rfingers 7.12502
rthumb 24.3976 -80.9813
lclavicle -1.2424e-015 -7.95139e-016
lhumerus -36.4962 2.19418 81.787
lradius 36.9283
lwrist -13.2269
lhand -6.6592 -34.9591
lfingers 7.12502
lthumb 19.1986 -5.88673
rfemur -22.2082 -6.28915 20.4744
rtibia 60.1926
rfoot -15.2242 -22.4196
rtoes 11.0111
lfemur 1.78305 -15.6098 -33.406
ltibia 19.4257
lfoot -18.6431 17.8704
ltoes -25.2363
765
root 7.27544 15.4755 2.41974 177.571 -0.218992 176.571
lowerback 7.51864 0.251683 -1.95159
upperback -4.93949 -0.0871328 -0.788224
thorax -9.47806 0.000686745 0.280193
lowerneck -1.55341 -2.58145 -5.399
upperneck 0.381099 -3.40688 5.15696
head 0.582492 -1.69291 2.52788
rclavicle 6.95746e-016 -5.1684e-015
rhumerus -44.6565 1.71784 -85.1314
rradius 32.8427
rwrist 18.99
rhand -1.34734 -52.52
rfingers 7.12502
rthumb 24.2992 -80.9999
lclavicle 6.95746e-016 -5.1684e-015
lhumerus -36.1648 1.87018 82.0356
lradius 37.3473
lwrist -12.7218
lhand -6.53793 -34.9336
lfingers 7.12502
lthumb 19.3152 -5.87285
rfemur -22.9597 -5.71417 20.6128
rtibia 58.5695
rfoot -15.3334 -22.958
rtoes 8.4253
lfemur 2.27879 -15.6034 -33.593
ltibia 19.4495
lfoot -19.2621 18.0859
ltoes -23.6996
766
root 7.28016 15.4681 2.30403 177.615 -0.229305 176.539
lowerback 7.40079 0.220298 -2.00647
upperback -4.86271 -0.130242 -0.812231
thorax -9.32322 -0.0179936 0.29247
lowerneck -1.30185 -2.50728 -5.29257
upperneck -0.0499899 -3.31411 5.26976
head 0.397859 -1.6506 2.55263
rclavicle -1.21756e-015 5.96354e-015
rhumerus -44.7677 1.45433 -85.0017
rradius 32.7952
rwrist 19.1008
rhand -1.05898 -52.6355
rfingers 7.12502
rthumb 24.5757 -81.0781
lclavicle -1.21756e-015 5.96354e-015
lhumerus -35.7813 1.47389 82.1974
lradius 37.6999
lwrist -12.2137
lhand -6.5946 -35.0602
lfingers 7.12502
lthumb 19.2607 -5.99399
rfemur -23.6109 -5.26757 20.698
rtibia 56.7657
rfoot -15.566 -23.3018
rtoes 5.39105
lfemur 2.81656 -15.5959 -33.7702
ltibia 19.3046
lfoot -19.5587 18.3267
ltoes -23.7381
767
root 7.28756 15.466 2.18471 177.637 -0.184032 176.574
lowerback 7.72433 0.245875 -2.19304
upperback -5.01077 -0.123118 -0.687088
thorax -9.6787 0.00464708 0.528777
lowerneck -1.10712 -2.4835 -5.38374
upperneck -0.230102 -3.28489 5.30648
head 0.308263 -1.63825 2.58581
rclavicle -1.19271e-015 3.97569e-015
rhumerus -45.3337 1.17349 -84.641
rradius 32.9131
rwrist 19.3531
rhand -0.573297 -52.8559
rfingers 7.12502
rthumb 25.0411 -81.2344
lclavicle -1.19271e-015 3.97569e-015
lhumerus -35.752 1.36421 82.4969
lradius 38.0121
lwrist -12.0371
lhand -6.55272 -35.0791
lfingers 7.12502
lthumb 19.301 -6.01693
rfemur -24.0772 -4.64491 20.8161
rtibia 54.7827
rfoot -15.8105 -23.4881
rtoes 6.24561
lfemur 3.4654 -15.623 -33.8828
ltibia 19.0286
lfoot -19.2402 18.6008
ltoes -25.7945
768
root 7.29451 15.4602 2.06278 177.627 -0.0991172 176.636
lowerback 7.25889 0.24221 -2.09171
upperback -4.70204 -0.0839212 -0.709507
thorax -9.06421 0.0152708 0.442543
lowerneck -1.19312 -2.52262 -5.37163
upperneck -0.494225 -3.32992 5.38988
head 0.243941 -1.6612 2.61148
rclavicle 3.47873e-016 -1.78906e-015
rhumerus -45.1208 0.894145 -84.555
rradius 32.8091
rwrist 19.2916
rhand -0.505355 -52.7974
rfingers 7.12502
rthumb 25.1062 -81.1668
lclavicle 3.47873e-016 -1.78906e-015
lhumerus -34.968 1.19752 82.6492
lradius 38.1294
lwrist -11.7746
lhand -6.6042 -34.9333
lfingers 7.12502
lthumb 19.2515 -5.86615
rfemur -24.4179 -3.77926 20.9168
rtibia 52.6499
rfoot -15.8329 -23.8282
rtoes 8.2984
lfemur 4.22924 -15.6846 -33.9999
ltibia 18.639
lfoot -19.0288 18.8317
ltoes -26.1695
769
root 7.30225 15.4529 1.94456 177.601 -0.00743449 176.711
lowerback 7.35642 0.139989 -2.08674
upperback -4.69679 0.00570525 -0.687077
thorax -9.1146 0.155072 0.434642
lowerneck -1.19218 -2.54543 -5.25628
upperneck -0.52063 -3.36271 5.38785
head 0.235081 -1.67843 2.58923
rclavicle -3.75206e-015 1.27222e-014
rhumerus -45.3839 0.791241 -84.4842
rradius 32.78
rwrist 19.13
rhand -0.593415 -52.5583
rfingers 7.12502
rthumb 25.0219 -80.9395
lclavicle -3.75206e-015 1.27222e-014
lhumerus -34.7402 0.830407 82.8563
lradius 38.4525
lwrist -11.2713
lhand -6.62201 -34.8681
lfingers 7.12502
lthumb 19.2343 -5.79924
rfemur -24.6812 -2.80396 21.0129
rtibia 50.3879
rfoot -16.008 -24.2543
rtoes 8.25807
lfemur 5.01909 -15.7668 -34.096
ltibia 18.1661
lfoot -19.1213 18.8502
ltoes -24.2032
770
root 7.31121 15.4477 1.8247 177.582 -0.0286402 176.719
lowerback 7.02467 0.157739 -2.10053
upperback -4.41354 0.0275159 -0.717374
thorax -8.61108 0.15445 0.410918
lowerneck -1.28844 -2.53196 -5.22109
upperneck -0.901442 -3.33822 5.5727
head 0.13338 -1.66883 2.64631
rclavicle 1.41634e-015 -3.67752e-015
rhumerus -45.189 0.29611 -84.2434
rradius 32.6293
rwrist 19.4922
rhand -0.708824 -52.1057
rfingers 7.12502
rthumb 24.9113 -80.5022
lclavicle 1.41634e-015 -3.67752e-015
lhumerus -34.1514 0.440873 83.0943
lradius 38.9148
lwrist -10.7964
lhand -6.55098 -34.719
lfingers 7.12502
lthumb 19.3026 -5.65698
rfemur -24.8252 -1.9345 20.9877
rtibia 48.0352
rfoot -16.3937 -24.5561
rtoes 6.09861
lfemur 5.80765 -15.8048 -34.2348
ltibia 17.6509
lfoot -19.0763 18.9026
ltoes -23.6919
